# MagicaVoxel @ Ephtracy

# group
g land2

# material
mtllib land2.mtl
usemtl palette

# normals
vn -1 0 0
vn 1 0 0
vn 0 0 1
vn 0 0 -1
vn 0 -1 0
vn 0 1 0

# texcoords
vt 0.302734 0.5
vt 0.373047 0.5
vt 0.630859 0.5
vt 0.748047 0.5

# verts
v -4 0 4
v -4 0 -4
v -4 7 4
v -4 7 -4
v -4 8 4
v -4 8 -4
v 3 1 3
v 3 1 -3
v 3 7 3
v 3 7 2
v 3 7 1
v 3 7 -1
v 3 7 -2
v 3 7 -3
v -3 1 3
v -3 1 -3
v -3 7 3
v -3 7 -0
v -3 7 -1
v -3 7 -2
v -3 7 -3
v 4 0 4
v 4 0 -4
v 4 7 4
v 4 7 -4
v 4 8 4
v 4 8 -4
v -4 0 4
v -4 7 4
v -4 8 4
v 4 0 4
v 4 7 4
v 4 8 4
v -3 1 -3
v -3 7 -3
v -2 7 -3
v 0 7 -3
v 1 7 -3
v 3 1 -3
v 3 7 -3
v -3 1 3
v -3 7 3
v -2 7 3
v -1 7 3
v 1 7 3
v 2 7 3
v 3 1 3
v 3 7 3
v -4 0 -4
v -4 7 -4
v -4 8 -4
v 4 0 -4
v 4 7 -4
v 4 8 -4
v -4 0 4
v 4 0 4
v -4 0 -4
v 4 0 -4
v -3 7 3
v -2 7 3
v -1 7 3
v 1 7 3
v 2 7 3
v 3 7 3
v -2 7 2
v -1 7 2
v 1 7 2
v 2 7 2
v 3 7 2
v -1 7 1
v 0 7 1
v 2 7 1
v 3 7 1
v -3 7 -0
v -2 7 -0
v -1 7 -0
v 0 7 -0
v -3 7 -1
v -2 7 -1
v 2 7 -1
v 3 7 -1
v -3 7 -2
v -2 7 -2
v 0 7 -2
v 1 7 -2
v 2 7 -2
v 3 7 -2
v -3 7 -3
v -2 7 -3
v 0 7 -3
v 1 7 -3
v 3 7 -3
v -3 1 3
v 3 1 3
v -3 1 -3
v 3 1 -3
v -4 8 4
v 4 8 4
v -2 8 3
v -1 8 3
v 1 8 3
v 2 8 3
v -2 8 2
v -1 8 2
v 1 8 2
v 2 8 2
v 3 8 2
v -1 8 1
v 0 8 1
v 2 8 1
v 3 8 1
v -3 8 -0
v -2 8 -0
v -1 8 -0
v 0 8 -0
v -3 8 -1
v -2 8 -1
v 2 8 -1
v 3 8 -1
v -3 8 -2
v -2 8 -2
v 0 8 -2
v 1 8 -2
v 2 8 -2
v 3 8 -2
v -3 8 -3
v -2 8 -3
v 0 8 -3
v 1 8 -3
v -4 8 -4
v 4 8 -4

# faces
f 3/2/1 2/2/1 1/2/1
f 4/2/1 2/2/1 3/2/1
f 5/4/1 4/4/1 3/4/1
f 6/4/1 4/4/1 5/4/1
f 9/2/1 8/2/1 7/2/1
f 10/2/1 8/2/1 9/2/1
f 11/2/1 8/2/1 10/2/1
f 12/2/1 8/2/1 11/2/1
f 13/2/1 8/2/1 12/2/1
f 14/2/1 8/2/1 13/2/1
f 15/2/2 16/2/2 17/2/2
f 17/2/2 16/2/2 18/2/2
f 18/2/2 16/2/2 19/2/2
f 19/2/2 16/2/2 20/2/2
f 20/2/2 16/2/2 21/2/2
f 22/2/2 23/2/2 24/2/2
f 24/2/2 23/2/2 25/2/2
f 24/4/2 25/4/2 26/4/2
f 26/4/2 25/4/2 27/4/2
f 31/2/3 29/2/3 28/2/3
f 32/4/3 30/4/3 29/4/3
f 32/2/3 29/2/3 31/2/3
f 33/4/3 30/4/3 32/4/3
f 36/2/3 35/2/3 34/2/3
f 37/2/3 36/2/3 34/2/3
f 38/2/3 37/2/3 34/2/3
f 39/2/3 38/2/3 34/2/3
f 40/2/3 38/2/3 39/2/3
f 41/2/4 42/2/4 43/2/4
f 41/2/4 43/2/4 44/2/4
f 41/2/4 44/2/4 45/2/4
f 41/2/4 45/2/4 46/2/4
f 41/2/4 46/2/4 47/2/4
f 47/2/4 46/2/4 48/2/4
f 49/2/4 50/2/4 52/2/4
f 50/4/4 51/4/4 53/4/4
f 52/2/4 50/2/4 53/2/4
f 53/4/4 51/4/4 54/4/4
f 57/2/5 56/2/5 55/2/5
f 58/2/5 56/2/5 57/2/5
f 65/4/5 60/4/5 59/4/5
f 65/1/5 61/1/5 60/1/5
f 66/4/5 62/4/5 61/4/5
f 66/1/5 61/1/5 65/1/5
f 67/3/5 63/3/5 62/3/5
f 67/4/5 62/4/5 66/4/5
f 68/4/5 64/4/5 63/4/5
f 68/3/5 63/3/5 67/3/5
f 69/4/5 64/4/5 68/4/5
f 70/4/5 67/4/5 66/4/5
f 70/4/5 66/4/5 65/4/5
f 70/4/5 68/4/5 67/4/5
f 71/4/5 68/4/5 70/4/5
f 72/1/5 69/1/5 68/1/5
f 72/4/5 68/4/5 71/4/5
f 73/1/5 69/1/5 72/1/5
f 74/4/5 65/4/5 59/4/5
f 74/4/5 70/4/5 65/4/5
f 75/4/5 70/4/5 74/4/5
f 76/3/5 71/3/5 70/3/5
f 76/4/5 70/4/5 75/4/5
f 77/4/5 73/4/5 72/4/5
f 77/3/5 71/3/5 76/3/5
f 77/4/5 72/4/5 71/4/5
f 78/3/5 75/3/5 74/3/5
f 79/4/5 76/4/5 75/4/5
f 79/3/5 75/3/5 78/3/5
f 79/4/5 77/4/5 76/4/5
f 80/4/5 73/4/5 77/4/5
f 80/4/5 77/4/5 79/4/5
f 81/4/5 73/4/5 80/4/5
f 82/4/5 79/4/5 78/4/5
f 82/4/5 80/4/5 79/4/5
f 83/4/5 80/4/5 82/4/5
f 84/4/5 80/4/5 83/4/5
f 85/4/5 80/4/5 84/4/5
f 86/3/5 81/3/5 80/3/5
f 86/4/5 80/4/5 85/4/5
f 87/3/5 81/3/5 86/3/5
f 88/1/5 83/1/5 82/1/5
f 89/4/5 84/4/5 83/4/5
f 89/1/5 83/1/5 88/1/5
f 90/1/5 85/1/5 84/1/5
f 90/4/5 84/4/5 89/4/5
f 91/4/5 86/4/5 85/4/5
f 91/1/5 85/1/5 90/1/5
f 91/4/5 87/4/5 86/4/5
f 92/4/5 87/4/5 91/4/5
f 93/2/6 94/2/6 95/2/6
f 95/2/6 94/2/6 96/2/6
f 97/4/6 98/4/6 99/4/6
f 99/4/6 98/4/6 100/4/6
f 100/4/6 98/4/6 101/4/6
f 101/4/6 98/4/6 102/4/6
f 97/4/6 99/4/6 103/4/6
f 99/1/6 100/1/6 103/1/6
f 100/4/6 101/4/6 104/4/6
f 103/1/6 100/1/6 104/1/6
f 101/3/6 102/3/6 105/3/6
f 104/4/6 101/4/6 105/4/6
f 102/4/6 98/4/6 106/4/6
f 105/3/6 102/3/6 106/3/6
f 106/4/6 98/4/6 107/4/6
f 104/4/6 105/4/6 108/4/6
f 103/4/6 104/4/6 108/4/6
f 105/4/6 106/4/6 108/4/6
f 108/4/6 106/4/6 109/4/6
f 106/1/6 107/1/6 110/1/6
f 109/4/6 106/4/6 110/4/6
f 107/4/6 98/4/6 111/4/6
f 110/1/6 107/1/6 111/1/6
f 97/4/6 103/4/6 112/4/6
f 103/4/6 108/4/6 112/4/6
f 112/4/6 108/4/6 113/4/6
f 108/3/6 109/3/6 114/3/6
f 113/4/6 108/4/6 114/4/6
f 109/4/6 110/4/6 115/4/6
f 114/3/6 109/3/6 115/3/6
f 110/4/6 111/4/6 115/4/6
f 112/3/6 113/3/6 116/3/6
f 97/4/6 112/4/6 116/4/6
f 113/4/6 114/4/6 117/4/6
f 116/3/6 113/3/6 117/3/6
f 114/4/6 115/4/6 117/4/6
f 115/4/6 111/4/6 118/4/6
f 117/4/6 115/4/6 118/4/6
f 111/4/6 98/4/6 119/4/6
f 118/4/6 111/4/6 119/4/6
f 97/4/6 116/4/6 120/4/6
f 116/4/6 117/4/6 120/4/6
f 117/4/6 118/4/6 120/4/6
f 120/4/6 118/4/6 121/4/6
f 121/4/6 118/4/6 122/4/6
f 122/4/6 118/4/6 123/4/6
f 118/3/6 119/3/6 124/3/6
f 123/4/6 118/4/6 124/4/6
f 119/4/6 98/4/6 125/4/6
f 124/3/6 119/3/6 125/3/6
f 97/4/6 120/4/6 126/4/6
f 120/1/6 121/1/6 126/1/6
f 121/4/6 122/4/6 127/4/6
f 126/1/6 121/1/6 127/1/6
f 122/1/6 123/1/6 128/1/6
f 127/4/6 122/4/6 128/4/6
f 123/4/6 124/4/6 129/4/6
f 128/1/6 123/1/6 129/1/6
f 124/4/6 125/4/6 129/4/6
f 127/4/6 128/4/6 130/4/6
f 126/4/6 127/4/6 130/4/6
f 128/4/6 129/4/6 130/4/6
f 97/4/6 126/4/6 130/4/6
f 129/4/6 125/4/6 131/4/6
f 130/4/6 129/4/6 131/4/6
f 125/4/6 98/4/6 131/4/6
